# xmcd
#
# Track frame offsets:
#	183
#	16490
#	31280
#	48805
#	67643
#	86813
#	101983
#	119338
#	133260
#	150223
#	166553
#	191510
#	205415
#
# Disc length: 3098 seconds
#
# Revision: 2
# Processed by: cddbd v1.5.2PL0 Copyright (c) Steve Scherf et al.
# Submitted via: audiograbber 1.83.01
#
DISCID=a10c180d
DTITLE=Jim Kahr - Back To Chicago
DYEAR=1992
DGENRE=Blues
TTITLE0=As The Years Go Passing By
TTITLE1=Breaking Up Somebody's Home
TTITLE2=Keep 'em Hot
TTITLE3=Broken Man
TTITLE4=Where We Goin'?
TTITLE5=Off The Wall
TTITLE6=If Loving You Is Wrong
TTITLE7=Chicago! (Doin' It To Me)
TTITLE8=Ain't Nobody's Business
TTITLE9=You Oughta Know
TTITLE10=Don't Mess With Mister T.
TTITLE11=Roughin' It
TTITLE12=Miss That Ol' Feelin'
EXTD=
EXTT0=
EXTT1=
EXTT2=
EXTT3=
EXTT4=
EXTT5=
EXTT6=
EXTT7=
EXTT8=
EXTT9=
EXTT10=
EXTT11=
EXTT12=
PLAYORDER=
